<svg id="wave" style="transform:rotate(180deg); transition: 0.3s" viewBox="0 0 1440 200" version="1.1" xmlns="http://www.w3.org/2000/svg"><defs><linearGradient id="sw-gradient-0" x1="0" x2="0" y1="1" y2="0"><stop stop-color="rgba(46, 196, 182, 1)" offset="0%"></stop><stop stop-color="rgba(31.66, 112.762, 214.769, 1)" offset="100%"></stop></linearGradient></defs><path style="transform:translate(0, 0px); opacity:1" fill="url(#sw-gradient-0)" d="M0,60L80,53.3C160,47,320,33,480,50C640,67,800,113,960,110C1120,107,1280,53,1440,40C1600,27,1760,53,1920,76.7C2080,100,2240,120,2400,130C2560,140,2720,140,2880,130C3040,120,3200,100,3360,80C3520,60,3680,40,3840,30C4000,20,4160,20,4320,43.3C4480,67,4640,113,4800,130C4960,147,5120,133,5280,133.3C5440,133,5600,147,5760,156.7C5920,167,6080,173,6240,160C6400,147,6560,113,6720,83.3C6880,53,7040,27,7200,36.7C7360,47,7520,93,7680,100C7840,107,8000,73,8160,53.3C8320,33,8480,27,8640,36.7C8800,47,8960,73,9120,83.3C9280,93,9440,87,9600,70C9760,53,9920,27,10080,16.7C10240,7,10400,13,10560,26.7C10720,40,10880,60,11040,86.7C11200,113,11360,147,11440,163.3L11520,180L11520,200L11440,200C11360,200,11200,200,11040,200C10880,200,10720,200,10560,200C10400,200,10240,200,10080,200C9920,200,9760,200,9600,200C9440,200,9280,200,9120,200C8960,200,8800,200,8640,200C8480,200,8320,200,8160,200C8000,200,7840,200,7680,200C7520,200,7360,200,7200,200C7040,200,6880,200,6720,200C6560,200,6400,200,6240,200C6080,200,5920,200,5760,200C5600,200,5440,200,5280,200C5120,200,4960,200,4800,200C4640,200,4480,200,4320,200C4160,200,4000,200,3840,200C3680,200,3520,200,3360,200C3200,200,3040,200,2880,200C2720,200,2560,200,2400,200C2240,200,2080,200,1920,200C1760,200,1600,200,1440,200C1280,200,1120,200,960,200C800,200,640,200,480,200C320,200,160,200,80,200L0,200Z"></path></svg>