<svg id="wave" style="transform:rotate(0deg); transition: 0.3s" viewBox="0 0 1440 180" version="1.1" xmlns="http://www.w3.org/2000/svg"><defs><linearGradient id="sw-gradient-0" x1="0" x2="0" y1="1" y2="0"><stop stop-color="rgba(178.68, 230.707, 226.805, 1)" offset="0%"></stop><stop stop-color="rgba(203, 243, 240, 1)" offset="100%"></stop></linearGradient></defs><path style="transform:translate(0, 0px); opacity:1" fill="url(#sw-gradient-0)" d="M0,0L48,21C96,42,192,84,288,99C384,114,480,102,576,87C672,72,768,54,864,48C960,42,1056,48,1152,48C1248,48,1344,42,1440,48C1536,54,1632,72,1728,66C1824,60,1920,30,2016,24C2112,18,2208,36,2304,45C2400,54,2496,54,2592,57C2688,60,2784,66,2880,60C2976,54,3072,36,3168,42C3264,48,3360,78,3456,96C3552,114,3648,120,3744,126C3840,132,3936,138,4032,117C4128,96,4224,48,4320,30C4416,12,4512,24,4608,33C4704,42,4800,48,4896,60C4992,72,5088,90,5184,90C5280,90,5376,72,5472,72C5568,72,5664,90,5760,108C5856,126,5952,144,6048,141C6144,138,6240,114,6336,99C6432,84,6528,78,6624,69C6720,60,6816,48,6864,42L6912,36L6912,180L6864,180C6816,180,6720,180,6624,180C6528,180,6432,180,6336,180C6240,180,6144,180,6048,180C5952,180,5856,180,5760,180C5664,180,5568,180,5472,180C5376,180,5280,180,5184,180C5088,180,4992,180,4896,180C4800,180,4704,180,4608,180C4512,180,4416,180,4320,180C4224,180,4128,180,4032,180C3936,180,3840,180,3744,180C3648,180,3552,180,3456,180C3360,180,3264,180,3168,180C3072,180,2976,180,2880,180C2784,180,2688,180,2592,180C2496,180,2400,180,2304,180C2208,180,2112,180,2016,180C1920,180,1824,180,1728,180C1632,180,1536,180,1440,180C1344,180,1248,180,1152,180C1056,180,960,180,864,180C768,180,672,180,576,180C480,180,384,180,288,180C192,180,96,180,48,180L0,180Z"></path><defs><linearGradient id="sw-gradient-1" x1="0" x2="0" y1="1" y2="0"><stop stop-color="rgba(46, 196, 182, 1)" offset="0%"></stop><stop stop-color="rgba(46, 196, 182, 1)" offset="100%"></stop></linearGradient></defs><path style="transform:translate(0, 50px); opacity:0.9" fill="url(#sw-gradient-1)" d="M0,18L48,21C96,24,192,30,288,51C384,72,480,108,576,114C672,120,768,96,864,81C960,66,1056,60,1152,51C1248,42,1344,30,1440,30C1536,30,1632,42,1728,42C1824,42,1920,30,2016,30C2112,30,2208,42,2304,45C2400,48,2496,42,2592,39C2688,36,2784,36,2880,45C2976,54,3072,72,3168,75C3264,78,3360,66,3456,51C3552,36,3648,18,3744,30C3840,42,3936,84,4032,108C4128,132,4224,138,4320,120C4416,102,4512,60,4608,60C4704,60,4800,102,4896,114C4992,126,5088,108,5184,96C5280,84,5376,78,5472,63C5568,48,5664,24,5760,21C5856,18,5952,36,6048,60C6144,84,6240,114,6336,120C6432,126,6528,108,6624,105C6720,102,6816,114,6864,120L6912,126L6912,180L6864,180C6816,180,6720,180,6624,180C6528,180,6432,180,6336,180C6240,180,6144,180,6048,180C5952,180,5856,180,5760,180C5664,180,5568,180,5472,180C5376,180,5280,180,5184,180C5088,180,4992,180,4896,180C4800,180,4704,180,4608,180C4512,180,4416,180,4320,180C4224,180,4128,180,4032,180C3936,180,3840,180,3744,180C3648,180,3552,180,3456,180C3360,180,3264,180,3168,180C3072,180,2976,180,2880,180C2784,180,2688,180,2592,180C2496,180,2400,180,2304,180C2208,180,2112,180,2016,180C1920,180,1824,180,1728,180C1632,180,1536,180,1440,180C1344,180,1248,180,1152,180C1056,180,960,180,864,180C768,180,672,180,576,180C480,180,384,180,288,180C192,180,96,180,48,180L0,180Z"></path></svg>